<?xml version="1.0" encoding="utf-8"?>
<!-- Generator: Adobe Illustrator 17.1.0, SVG Export Plug-In . SVG Version: 6.00 Build 0)  -->
<!DOCTYPE svg PUBLIC "-//W3C//DTD SVG 1.1//EN" "http://www.w3.org/Graphics/SVG/1.1/DTD/svg11.dtd">
<svg version="1.1" xmlns="http://www.w3.org/2000/svg" xmlns:xlink="http://www.w3.org/1999/xlink" x="0px" y="0px"
	 viewBox="0 0 306.2 58.3" enable-background="new 0 0 306.2 58.3" xml:space="preserve">
<g id="Layer_2">
	<rect x="62.7" y="2.1" fill="none" width="243.4" height="56.2"/>
	
		<text transform="matrix(1.1601 0 0 1 62.7258 45.4032)" fill="#FFFFFF" font-family="'MyriadPro-Regular'" font-size="51.7204" letter-spacing="-0.9">Runelytics</text>
</g>
<g id="Layer_3">
	<g>
		<g>
			<defs>
				<rect id="SVGID_1_" x="0" y="0" width="58.7" height="58.3"/>
			</defs>
			<clipPath id="SVGID_2_">
				<use xlink:href="#SVGID_1_"  overflow="visible"/>
			</clipPath>
			<g clip-path="url(#SVGID_2_)">
				<defs>
					<rect id="SVGID_3_" x="0" y="0" width="58.7" height="58.3"/>
				</defs>
				<clipPath id="SVGID_4_">
					<use xlink:href="#SVGID_3_"  overflow="visible"/>
				</clipPath>
				<path clip-path="url(#SVGID_4_)" fill="none" stroke="#F15A24" stroke-width="8" stroke-miterlimit="10" d="M55.3,46.6
					c0,4.8-3.9,8.7-8.7,8.7H12.1c-4.8,0-8.7-3.9-8.7-8.7V12c0-4.8,3.9-8.7,8.7-8.7h34.6c4.8,0,8.7,3.9,8.7,8.7V46.6z"/>
			</g>
			<g clip-path="url(#SVGID_2_)">
				<defs>
					<rect id="SVGID_5_" x="0" y="0" width="54.6" height="57.6"/>
				</defs>
				<clipPath id="SVGID_6_">
					<use xlink:href="#SVGID_5_"  overflow="visible"/>
				</clipPath>
				
					<circle clip-path="url(#SVGID_6_)" fill="none" stroke="#F15A24" stroke-width="2.27" stroke-miterlimit="10" cx="18.5" cy="36.1" r="2.5"/>
				
					<circle clip-path="url(#SVGID_6_)" fill="none" stroke="#F15A24" stroke-width="2.27" stroke-miterlimit="10" cx="30.1" cy="39.2" r="2.5"/>
				
					<circle clip-path="url(#SVGID_6_)" fill="none" stroke="#F15A24" stroke-width="2.27" stroke-miterlimit="10" cx="43.6" cy="25.6" r="2.5"/>
				
					<line clip-path="url(#SVGID_6_)" fill="none" stroke="#F15A24" stroke-width="3.405" stroke-miterlimit="10" x1="20.9" y1="36.6" x2="27.5" y2="38.5"/>
				
					<line clip-path="url(#SVGID_6_)" fill="none" stroke="#F15A24" stroke-width="3.405" stroke-miterlimit="10" x1="32" y1="37.1" x2="41.9" y2="27.3"/>
				
					<line clip-path="url(#SVGID_6_)" fill="none" stroke="#F15A24" stroke-width="3.405" stroke-miterlimit="10" x1="16.3" y1="37.8" x2="2.6" y2="46.4"/>
				<path clip-path="url(#SVGID_6_)" fill="#F7931E" d="M14.7,36c0-2.1,1.7-3.8,3.8-3.8c0.4,0,0.8,0.1,1.2,0.2V18.9h-6.2v18.3
					l1.2-0.8C14.7,36.3,14.7,36.1,14.7,36"/>
				<path clip-path="url(#SVGID_6_)" fill="#F7931E" d="M17,39.5l-3.5,2.2V51h6.2V39.6c-0.4,0.1-0.8,0.2-1.2,0.2
					C18,39.8,17.5,39.7,17,39.5"/>
				<path clip-path="url(#SVGID_6_)" fill="#F7931E" d="M22.1,34.9l3.8,1.2V15.8h-5v17.3C21.5,33.5,21.9,34.2,22.1,34.9"/>
				<path clip-path="url(#SVGID_6_)" fill="#F7931E" d="M20.9,39V51h5V40.1l-4.7-1.5C21.1,38.8,21,38.9,20.9,39"/>
				<path clip-path="url(#SVGID_6_)" fill="#F7931E" d="M30.1,42.9c-1,0-2-0.4-2.6-1.1V51h5.4v-9.3C32.2,42.5,31.2,42.9,30.1,42.9"
					/>
				<path clip-path="url(#SVGID_6_)" fill="#F7931E" d="M31,35.4l1.9-1.9V21.2h-5.4v15.2c0.7-0.7,1.6-1.1,2.6-1.1
					C30.4,35.3,30.7,35.4,31,35.4"/>
				<polygon clip-path="url(#SVGID_6_)" fill="#F7931E" points="34.1,51 38.7,51 38.7,33.1 34.1,37.8 				"/>
				<polygon clip-path="url(#SVGID_6_)" fill="#F7931E" points="38.7,24.7 34.1,24.7 34.1,32.3 38.7,27.7 				"/>
				<path clip-path="url(#SVGID_6_)" fill="#F7931E" d="M43.7,21.8c0.7,0,1.4,0.2,2,0.6V8.4h-5v14.9C41.4,22.3,42.5,21.8,43.7,21.8"
					/>
				<path clip-path="url(#SVGID_6_)" fill="#F7931E" d="M42.6,29.2l-2,2V51h5V28.8c-0.6,0.4-1.3,0.6-2,0.6
					C43.3,29.4,43,29.3,42.6,29.2"/>
			</g>
		</g>
	</g>
</g>
</svg>
